<?xml version="1.0" encoding="UTF-8"?>
<svg xmlns="http://www.w3.org/2000/svg" version="1.1" viewBox="0 0 144 48">
  <!-- Generator: Adobe Illustrator 28.7.1, SVG Export Plug-In . SVG Version: 1.2.0 Build 142)  -->
  <g>
    <g id="Logo">
      <g id="GALLERY">
        <path d="M19.94,24.19c1.39.61,2.48,1.48,3.29,2.61.8,1.13,1.25,2.44,1.35,3.92h-6.36c-.14-.84-.48-1.48-1-1.93-.53-.45-1.24-.67-2.11-.67-1.32,0-2.37.58-3.14,1.72-.77,1.15-1.15,2.71-1.15,4.7s.38,3.62,1.15,4.8c.77,1.18,1.82,1.77,3.17,1.77,1.14,0,2.04-.35,2.71-1.04.67-.69,1.04-1.62,1.1-2.81h-4.11v-4.38h9.69v12.24h-5.13v-2.04h-.06c-.64.82-1.44,1.44-2.4,1.86s-2.06.63-3.3.63c-1.86,0-3.48-.45-4.85-1.33s-2.42-2.17-3.15-3.83-1.09-3.62-1.09-5.88.42-4.33,1.27-6.02c.85-1.69,2.07-2.98,3.66-3.88,1.59-.9,3.47-1.35,5.65-1.35,1.82,0,3.42.31,4.81.92Z"/>
        <path d="M33.57,41.28l-1.08,3.84h-6.33l7.17-21.36h7.71l7.17,21.36h-6.33l-1.08-3.84h-7.23ZM39.06,35.1c-.62-2.18-1.23-4.58-1.83-7.2h-.06c-.64,2.74-1.26,5.14-1.86,7.2l-.42,1.47h4.59l-.42-1.47Z"/>
        <path d="M65.26,40.08v5.04h-15.27v-21.36h6v16.32h9.27Z"/>
        <path d="M82.44,40.08v5.04h-15.27v-21.36h6v16.32h9.27Z"/>
        <path d="M90.35,28.71v3.21h8.79v4.83h-8.79v3.42h9.63v4.95h-15.63v-21.36h15.45v4.95h-9.45Z"/>
        <path d="M120.82,29.88c0,1.3-.35,2.4-1.05,3.3-.7.9-1.68,1.54-2.94,1.92v.06c.78.28,1.41.74,1.88,1.37s.98,1.66,1.52,3.08l1.98,5.52h-6.36l-1.53-4.59c-.36-1.06-.79-1.79-1.28-2.21s-1.21-.62-2.14-.62h-1.5v7.41h-6v-21.36h9.51c5.28,0,7.92,2.04,7.92,6.12ZM109.39,33.36h2.55c2.02,0,3.03-.88,3.03-2.64,0-.86-.27-1.48-.81-1.88-.54-.39-1.33-.58-2.37-.58h-2.4v5.1Z"/>
        <path d="M134.71,45.12h-6v-7.8l-7.32-13.56h6.6l1.68,3.75c.84,1.88,1.51,3.64,2.01,5.28h.06c.54-1.7,1.22-3.46,2.04-5.28l1.68-3.75h6.57l-7.32,13.56v7.8Z"/>
      </g>
      <g id="ITZY">
        <path d="M5.5,20.25c2.25-2.81,4.44-5.55,6.68-8.35h-3.33V2.68h4.16v9.21h5.31s0,.06.01.08c-.07.02-.14.06-.21.07-1.44.34-2.59,1.11-3.5,2.27-1.5,1.9-3.03,3.79-4.54,5.68-.06.08-.13.16-.2.24h-4.37Z"/>
        <path d="M20.02,6.32h-4.9v-3.64h14v3.62h-4.89v5.59h4.58v.09c-.07.03-.14.06-.22.08-1.4.33-2.53,1.07-3.43,2.19-1.52,1.92-3.05,3.82-4.58,5.73-.07.09-.15.18-.22.26h-4.36c2.24-2.8,4.43-5.54,6.67-8.34h-2.65v-5.57Z"/>
        <path d="M34.3,17.02c.08.04.11.07.15.08,1.22.42,2.44.84,3.66,1.27.6.21,1.13.08,1.6-.33.28-.25.55-.52.79-.81,1.25-1.54,2.48-3.09,3.71-4.64.38-.48.84-.71,1.46-.71,1.17.01,2.35,0,3.52,0,.1,0,.19,0,.37,0-.1.09-.13.14-.17.15-1.1.37-1.94,1.09-2.66,1.96-.98,1.2-1.94,2.41-2.91,3.62-.58.72-1.15,1.44-1.73,2.16-.43.52-.96.88-1.66.84-.27-.02-.55-.09-.8-.2-1.18-.55-2.34-1.13-3.51-1.7-.74-.37-1.48-.75-2.25-1.13-.08.1-.16.19-.23.27-.5.56-.95,1.16-1.5,1.66-1.21,1.13-2.65,1.53-4.27,1.09-1.59-.43-2.44-1.92-2.01-3.47.28-1,1.01-1.51,1.98-1.71.92-.19,1.82-.02,2.69.3.1.04.2.08.33.13,1.06-1.32,2.12-2.65,3.18-3.97h1.16c1.28-1.83,2.56-3.66,3.89-5.56h-7.86v-3.64h12.9c0,.1.02.19.02.29,0,1.03,0,2.06,0,3.1,0,.13-.03.28-.1.38-1.29,1.79-2.58,3.57-3.87,5.35-.02.02-.04.04-.07.07h-1.67c-1.36,1.7-2.72,3.41-4.11,5.14ZM30.42,16.41c-.83-.35-1.63-.58-2.48-.36-.84.21-1.31,1.05-1.08,1.87.09.34.3.56.64.67.43.14.82.05,1.18-.21.72-.51,1.23-1.21,1.75-1.96Z"/>
        <path d="M45.47,2.68h4.54c1.23,2.75,2.47,5.51,3.75,8.34,1.27-2.82,2.5-5.57,3.74-8.33h4.54c-1.42,3.07-2.82,6.11-4.24,9.2h1.24s.04.05.05.08c-1.25,1.56-2.5,3.12-3.74,4.68,0,.01.02.03.02.04.1-.04.19-.08.28-.12,1-.42,2.02-.64,3.11-.43.68.13,1.28.46,1.83.87,1.12.83,1.97,1.91,2.7,3.08.02.04.03.08.06.15h-4.36c-.09-.43-.15-.86-.28-1.27-.11-.35-.27-.69-.47-.99-.37-.56-.93-.82-1.6-.84-1.12-.04-2.05.31-2.72,1.27-.45.64-.97,1.23-1.45,1.83h-4.37c2.24-2.8,4.44-5.55,6.67-8.34h-5.03c-1.41-3.06-2.82-6.12-4.26-9.22Z"/>
      </g>
    </g>
  </g>
</svg>